<svg width="1440" height="1024" viewBox="0 0 1440 1024" fill="none" xmlns="http://www.w3.org/2000/svg">
<mask id="mask0_137_45" style="mask-type:alpha" maskUnits="userSpaceOnUse" x="0" y="0" width="1440" height="1024">
<rect width="1440" height="1024" fill="white" fill-opacity="0.22"/>
</mask>
<g mask="url(#mask0_137_45)">
<path d="M-1628.81 354.375C-1587.44 354.375 -1546.99 342.106 -1512.59 319.121C-1478.19 296.135 -1451.38 263.464 -1435.55 225.24C-1419.72 187.016 -1415.57 144.956 -1423.64 104.377C-1431.72 63.799 -1451.64 26.525 -1480.89 -2.73C-1510.15 -31.986 -1547.42 -51.909 -1588 -59.98C-1628.58 -68.052 -1670.64 -63.909 -1708.87 -48.076C-1747.09 -32.244 -1779.76 -5.431 -1802.74 28.969C-1825.73 63.37 -1838 103.814 -1838 145.188H-1628.81V354.375ZM-1628.81 354.375C-1656.28 354.375 -1683.49 359.786 -1708.87 370.299C-1734.25 380.811 -1757.31 396.22 -1776.73 415.645C-1796.15 435.07 -1811.56 458.13 -1822.08 483.51C-1832.59 508.89 -1838 536.092 -1838 563.563C-1838 591.033 -1832.59 618.235 -1822.08 643.615C-1811.56 668.995 -1796.15 692.056 -1776.73 711.48C-1757.31 730.905 -1734.25 746.314 -1708.87 756.827C-1683.49 767.339 -1656.28 772.75 -1628.81 772.75V354.375ZM-1628.81 1191.12C-1656.28 1191.13 -1683.49 1185.71 -1708.87 1175.2C-1734.25 1164.69 -1757.31 1149.28 -1776.73 1129.86C-1796.15 1110.43 -1811.56 1087.37 -1822.08 1061.99C-1832.59 1036.61 -1838 1009.41 -1838 981.94H-1419.62M-1628.81 1191.12C-1601.34 1191.12 -1574.14 1185.71 -1548.76 1175.2C-1523.38 1164.69 -1500.32 1149.28 -1480.89 1129.86C-1461.47 1110.43 -1446.06 1087.37 -1435.55 1061.99C-1425.04 1036.61 -1419.62 1009.41 -1419.62 981.94M-1628.81 1191.12C-1656.28 1191.12 -1683.49 1196.54 -1708.87 1207.05C-1734.25 1217.56 -1757.31 1232.97 -1776.73 1252.39C-1796.15 1271.82 -1811.56 1294.88 -1822.08 1320.26C-1832.59 1345.64 -1838 1372.84 -1838 1400.31H-1628.81M-1628.81 1191.12V1400.31ZM-1419.62 981.94C-1419.62 940.56 -1407.36 900.12 -1384.37 865.719C-1361.38 831.318 -1328.71 804.506 -1290.49 788.673C-1252.27 772.841 -1210.21 768.698 -1169.63 776.77C-1129.05 784.841 -1091.77 804.764 -1062.52 834.02C-1033.26 863.275 -1013.34 900.549 -1005.27 941.13C-997.198 981.71 -1001.34 1023.77 -1017.17 1061.99C-1033.01 1100.21 -1059.82 1132.88 -1094.22 1155.87C-1128.62 1178.86 -1169.06 1191.13 -1210.44 1191.12M-1419.62 981.94H-1210.44V1191.12M-1419.62 1400.31C-1419.62 1427.78 -1425.04 1454.99 -1435.55 1480.37C-1446.06 1505.74 -1461.47 1528.81 -1480.89 1548.23C-1500.32 1567.66 -1523.38 1583.06 -1548.76 1593.58C-1574.14 1604.09 -1601.34 1609.5 -1628.81 1609.5V1400.31M-1419.62 1400.31H-1628.81ZM-1419.62 1400.31C-1419.62 1372.84 -1414.21 1345.64 -1403.7 1320.26C-1393.19 1294.88 -1377.78 1271.82 -1358.36 1252.39C-1338.93 1232.97 -1315.87 1217.56 -1290.49 1207.05C-1265.11 1196.54 -1237.91 1191.12 -1210.44 1191.12M-1419.62 1400.31C-1419.62 1427.78 -1414.21 1454.99 -1403.7 1480.37C-1393.19 1505.74 -1377.78 1528.81 -1358.36 1548.23C-1338.93 1567.66 -1315.87 1583.06 -1290.49 1593.58C-1265.11 1604.09 -1237.91 1609.5 -1210.44 1609.5V1191.12M-1419.62 1818.69C-1419.62 1777.31 -1431.89 1736.87 -1454.88 1702.47C-1477.86 1668.07 -1510.54 1641.26 -1548.76 1625.42C-1586.98 1609.59 -1629.04 1605.45 -1669.62 1613.52C-1710.2 1621.59 -1747.48 1641.51 -1776.73 1670.77C-1805.99 1700.03 -1825.91 1737.3 -1833.98 1777.88C-1842.05 1818.46 -1837.91 1860.52 -1822.08 1898.74C-1806.24 1936.96 -1779.43 1969.63 -1745.03 1992.62C-1710.63 2015.61 -1670.19 2027.88 -1628.81 2027.88V1818.69H-1419.62ZM-1419.62 1818.69C-1419.62 1777.31 -1407.36 1736.87 -1384.37 1702.47C-1361.38 1668.07 -1328.71 1641.26 -1290.49 1625.42C-1252.27 1609.59 -1210.21 1605.45 -1169.63 1613.52C-1129.05 1621.59 -1091.77 1641.51 -1062.52 1670.77C-1033.26 1700.03 -1013.34 1737.3 -1005.27 1777.88C-997.198 1818.46 -1001.34 1860.52 -1017.17 1898.74C-1033.01 1936.96 -1059.82 1969.63 -1094.22 1992.62C-1128.62 2015.61 -1169.06 2027.88 -1210.44 2027.88V1818.69H-1419.62ZM-1480.89 2089.14C-1510.15 2059.89 -1547.42 2039.97 -1588 2031.89C-1628.58 2023.82 -1670.64 2027.97 -1708.87 2043.8C-1747.09 2059.63 -1779.76 2086.44 -1802.74 2120.84M-1210.44 354.375C-1237.91 354.375 -1265.11 348.964 -1290.49 338.452C-1315.87 327.939 -1338.93 312.53 -1358.36 293.105C-1377.78 273.681 -1393.19 250.62 -1403.7 225.24C-1414.21 199.86 -1419.62 172.658 -1419.62 145.188H-1001.25M-1210.44 354.375C-1182.97 354.375 -1155.77 348.964 -1130.39 338.452C-1105.01 327.939 -1081.94 312.53 -1062.52 293.105C-1043.09 273.681 -1027.69 250.62 -1017.17 225.24C-1006.66 199.86 -1001.25 172.658 -1001.25 145.188M-1210.44 354.375C-1237.91 354.375 -1265.11 359.786 -1290.49 370.299C-1315.87 380.811 -1338.93 396.22 -1358.36 415.645C-1377.78 435.07 -1393.19 458.13 -1403.7 483.51C-1414.21 508.89 -1419.62 536.092 -1419.62 563.563H-1210.44M-1210.44 354.375V563.563ZM-1001.25 145.188C-1001.25 117.717 -995.839 90.515 -985.326 65.135C-974.814 39.755 -959.405 16.695 -939.98 -2.73C-920.555 -22.155 -897.495 -37.564 -872.115 -48.076C-846.735 -58.589 -819.53 -64 -792.06 -64V354.375M-1001.25 145.188C-1001.25 172.658 -995.839 199.86 -985.326 225.24C-974.814 250.62 -959.405 273.681 -939.98 293.105C-920.555 312.53 -897.495 327.939 -872.115 338.452C-846.735 348.964 -819.53 354.375 -792.06 354.375M-1210.44 563.563H-1001.25C-1001.25 591.033 -1006.66 618.235 -1017.17 643.615C-1027.69 668.995 -1043.09 692.056 -1062.52 711.481C-1081.94 730.905 -1105.01 746.314 -1130.39 756.827C-1155.77 767.339 -1182.97 772.75 -1210.44 772.75V563.563ZM-792.06 354.375C-764.59 354.375 -737.39 359.786 -712.01 370.299C-686.63 380.811 -663.57 396.22 -644.14 415.645C-624.72 435.07 -609.31 458.13 -598.8 483.51C-588.29 508.89 -582.87 536.092 -582.87 563.563M-792.06 354.375V772.75C-764.59 772.75 -737.39 767.339 -712.01 756.827C-686.63 746.314 -663.57 730.905 -644.14 711.48C-624.72 692.056 -609.31 668.995 -598.8 643.615C-588.29 618.235 -582.87 591.033 -582.87 563.563M-582.87 563.563C-582.87 536.092 -577.46 508.89 -566.95 483.51C-556.44 458.13 -541.03 435.07 -521.61 415.645C-502.18 396.22 -479.12 380.811 -453.74 370.299C-428.36 359.786 -401.16 354.375 -373.69 354.375M-582.87 563.563C-582.87 591.033 -577.46 618.235 -566.95 643.615C-556.44 668.995 -541.03 692.056 -521.61 711.48C-502.18 730.905 -479.12 746.314 -453.74 756.827C-428.36 767.339 -401.16 772.75 -373.69 772.75M-792.06 1191.12C-833.44 1191.13 -873.88 1178.86 -908.281 1155.87C-942.681 1132.88 -969.494 1100.21 -985.326 1061.99C-1001.16 1023.77 -1005.3 981.71 -997.23 941.13C-989.159 900.549 -969.236 863.275 -939.98 834.02C-910.725 804.764 -873.451 784.841 -832.87 776.77C-792.29 768.698 -750.23 772.841 -712.01 788.673C-673.79 804.506 -641.12 831.318 -618.13 865.719C-595.14 900.12 -582.87 940.56 -582.87 981.94H-792.06V1191.12ZM-792.06 1191.12C-764.59 1191.12 -737.39 1196.54 -712.01 1207.05C-686.63 1217.56 -663.57 1232.97 -644.14 1252.39C-624.72 1271.82 -609.31 1294.88 -598.8 1320.26C-588.29 1345.64 -582.87 1372.84 -582.87 1400.31M-792.06 1191.12V1609.5ZM-792.06 1609.5C-764.59 1609.5 -737.39 1604.09 -712.01 1593.58C-686.63 1583.06 -663.57 1567.66 -644.14 1548.23C-624.72 1528.81 -609.31 1505.74 -598.8 1480.37C-588.29 1454.99 -582.87 1427.78 -582.87 1400.31M-792.06 1609.5C-819.53 1609.5 -846.735 1614.91 -872.115 1625.42C-897.495 1635.94 -920.555 1651.34 -939.98 1670.77C-959.405 1690.19 -974.814 1713.26 -985.326 1738.64C-995.839 1764.01 -1001.25 1791.22 -1001.25 1818.69H-792.06M-792.06 1609.5V1818.69ZM-582.87 1400.31C-582.87 1358.94 -570.61 1318.49 -547.62 1284.09C-524.63 1249.69 -491.96 1222.88 -453.74 1207.05C-415.52 1191.22 -373.46 1187.07 -332.88 1195.14C-292.3 1203.22 -255.02 1223.14 -225.77 1252.39C-196.51 1281.65 -176.59 1318.92 -168.52 1359.5C-160.45 1400.08 -164.59 1442.14 -180.42 1480.37C-196.26 1518.59 -223.07 1551.26 -257.47 1574.25C-291.87 1597.23 -332.31 1609.5 -373.69 1609.5M-582.87 1400.31H-373.69V1609.5M-792.06 2027.88C-764.59 2027.88 -737.39 2022.46 -712.01 2011.95C-686.63 2001.44 -663.57 1986.03 -644.14 1966.61C-624.72 1947.18 -609.31 1924.12 -598.8 1898.74C-588.29 1873.36 -582.87 1846.16 -582.87 1818.69H-792.06M-792.06 2027.88V1818.69ZM-792.06 2027.88C-819.53 2027.88 -846.735 2033.29 -872.115 2043.8C-897.495 2054.31 -920.555 2069.72 -939.98 2089.14C-959.405 2108.57 -974.814 2131.63 -985.326 2157.01M-164.5 145.188C-164.5 103.814 -176.77 63.37 -199.75 28.969C-222.74 -5.431 -255.41 -32.243 -293.63 -48.076C-331.86 -63.909 -373.92 -68.052 -414.5 -59.98C-455.08 -51.909 -492.35 -31.986 -521.61 -2.73C-550.86 26.525 -570.78 63.799 -578.86 104.377C-586.93 144.956 -582.78 187.016 -566.95 225.24C-551.12 263.464 -524.31 296.135 -489.91 319.121C-455.51 342.106 -415.06 354.375 -373.69 354.375M-164.5 145.188H-373.69V354.375M-164.5 145.188C-164.5 103.814 -152.23 63.37 -129.25 28.969C-106.26 -5.431 -73.59 -32.244 -35.36 -48.076C2.86002 -63.909 44.92 -68.052 85.5 -59.98C126.08 -51.909 163.35 -31.986 192.61 -2.73C221.86 26.525 241.78 63.799 249.86 104.377C257.93 144.956 253.78 187.016 237.95 225.24C222.12 263.464 195.31 296.135 160.91 319.121C126.51 342.106 86.0599 354.375 44.6899 354.375M-164.5 145.188H44.6899V354.375M-373.69 354.375V772.75ZM-373.69 772.75C-346.22 772.75 -319.01 778.161 -293.63 788.673C-268.25 799.186 -245.19 814.595 -225.77 834.02C-206.34 853.445 -190.94 876.505 -180.42 901.885C-169.91 927.265 -164.5 954.47 -164.5 981.94M-373.69 772.75V1191.12C-346.22 1191.12 -319.01 1185.71 -293.63 1175.2C-268.25 1164.69 -245.19 1149.28 -225.77 1129.86C-206.34 1110.43 -190.94 1087.37 -180.42 1061.99C-169.91 1036.61 -164.5 1009.41 -164.5 981.94M-164.5 981.94C-164.5 1009.41 -159.09 1036.61 -148.58 1061.99C-138.06 1087.37 -122.66 1110.43 -103.23 1129.86C-83.81 1149.28 -60.74 1164.69 -35.36 1175.2C-9.98998 1185.71 17.2199 1191.13 44.6899 1191.12M-164.5 981.94H253.88ZM-373.69 1609.5C-346.22 1609.5 -319.01 1614.91 -293.63 1625.42C-268.25 1635.94 -245.19 1651.34 -225.77 1670.77C-206.34 1690.19 -190.94 1713.26 -180.42 1738.64C-169.91 1764.01 -164.5 1791.22 -164.5 1818.69C-164.5 1846.16 -169.91 1873.36 -180.42 1898.74C-190.94 1924.12 -206.34 1947.18 -225.77 1966.61C-245.19 1986.03 -268.25 2001.44 -293.63 2011.95C-319.01 2022.46 -346.22 2027.87 -373.69 2027.88V1609.5ZM-199.75 2120.84C-222.74 2086.44 -255.41 2059.63 -293.63 2043.8C-331.86 2027.97 -373.92 2023.82 -414.5 2031.89C-455.08 2039.97 -492.35 2059.89 -521.61 2089.14M44.6899 354.375C17.2199 354.375 -9.98998 359.786 -35.36 370.299C-60.74 380.811 -83.81 396.22 -103.23 415.645C-122.66 435.07 -138.06 458.13 -148.58 483.51C-159.09 508.89 -164.5 536.092 -164.5 563.563C-164.5 591.033 -159.09 618.235 -148.58 643.615C-138.06 668.995 -122.66 692.056 -103.23 711.48C-83.81 730.905 -60.74 746.314 -35.36 756.827C-9.98998 767.339 17.2199 772.75 44.6899 772.75V354.375ZM44.6899 1191.12C72.1599 1191.12 99.36 1185.71 124.74 1175.2C150.12 1164.69 173.18 1149.28 192.61 1129.86C212.03 1110.43 227.44 1087.37 237.95 1061.99C248.46 1036.61 253.88 1009.41 253.88 981.94M44.6899 1191.12C17.2199 1191.12 -9.98998 1196.54 -35.36 1207.05C-60.74 1217.56 -83.81 1232.97 -103.23 1252.39C-122.66 1271.82 -138.06 1294.88 -148.58 1320.26C-159.09 1345.64 -164.5 1372.84 -164.5 1400.31H44.6899M44.6899 1191.12V1400.31ZM253.88 981.94C253.88 940.56 266.14 900.12 289.13 865.719C312.12 831.318 344.79 804.506 383.01 788.673C421.23 772.841 463.29 768.698 503.87 776.77C544.45 784.841 581.73 804.764 610.98 834.02C640.24 863.275 660.16 900.549 668.23 941.13C676.3 981.71 672.16 1023.77 656.33 1061.99C640.49 1100.21 613.68 1132.88 579.28 1155.87C544.88 1178.86 504.44 1191.13 463.06 1191.12M253.88 981.94H463.06V1191.12M253.88 1400.31C253.88 1427.78 248.46 1454.99 237.95 1480.37C227.44 1505.74 212.03 1528.81 192.61 1548.23C173.18 1567.66 150.12 1583.06 124.74 1593.58C99.36 1604.09 72.1599 1609.5 44.6899 1609.5V1400.31M253.88 1400.31H44.6899ZM253.88 1400.31C253.87 1372.84 259.29 1345.64 269.8 1320.26C280.31 1294.88 295.72 1271.82 315.14 1252.39C334.57 1232.97 357.63 1217.56 383.01 1207.05C408.39 1196.54 435.59 1191.12 463.06 1191.12M253.88 1400.31C253.88 1427.78 259.29 1454.99 269.8 1480.37C280.31 1505.74 295.72 1528.81 315.14 1548.23C334.57 1567.66 357.63 1583.06 383.01 1593.58C408.39 1604.09 435.59 1609.5 463.06 1609.5V1191.12M253.88 1818.69C253.88 1777.31 241.61 1736.87 218.62 1702.47C195.63 1668.07 162.96 1641.26 124.74 1625.42C86.52 1609.59 44.46 1605.45 3.88 1613.52C-36.7 1621.59 -73.97 1641.51 -103.23 1670.77C-132.49 1700.03 -152.41 1737.3 -160.48 1777.88C-168.55 1818.46 -164.41 1860.52 -148.58 1898.74C-132.74 1936.96 -105.93 1969.63 -71.53 1992.62C-37.13 2015.61 3.30994 2027.88 44.6899 2027.88V1818.69H253.88ZM253.88 1818.69C253.88 1777.31 266.14 1736.87 289.13 1702.47C312.12 1668.07 344.79 1641.26 383.01 1625.42C421.23 1609.59 463.29 1605.45 503.87 1613.52C544.45 1621.59 581.73 1641.51 610.98 1670.77C640.24 1700.03 660.16 1737.3 668.23 1777.88C676.3 1818.46 672.16 1860.52 656.33 1898.74C640.49 1936.96 613.68 1969.63 579.28 1992.62C544.88 2015.61 504.44 2027.88 463.06 2027.88V1818.69H253.88ZM192.61 2089.14C163.35 2059.89 126.08 2039.97 85.5 2031.89C44.92 2023.82 2.86002 2027.97 -35.36 2043.8C-73.59 2059.63 -106.26 2086.44 -129.25 2120.84M463.06 354.375C435.59 354.375 408.39 348.964 383.01 338.452C357.63 327.939 334.57 312.53 315.14 293.105C295.72 273.681 280.31 250.62 269.8 225.24C259.29 199.86 253.87 172.658 253.87 145.188H672.25M463.06 354.375C490.53 354.375 517.74 348.964 543.11 338.452C568.49 327.939 591.56 312.53 610.98 293.105C630.41 273.681 645.81 250.62 656.33 225.24C666.84 199.86 672.25 172.658 672.25 145.188M463.06 354.375C435.59 354.375 408.39 359.786 383.01 370.299C357.63 380.811 334.57 396.22 315.14 415.645C295.72 435.07 280.31 458.13 269.8 483.51C259.29 508.89 253.87 536.092 253.88 563.563H463.06M463.06 354.375V563.563ZM672.25 145.188C672.25 117.717 677.66 90.515 688.17 65.135C698.69 39.755 714.09 16.695 733.52 -2.73C752.94 -22.155 776.01 -37.564 801.39 -48.076C826.76 -58.589 853.97 -64 881.44 -64V354.375M672.25 145.188C672.25 172.658 677.66 199.86 688.17 225.24C698.69 250.62 714.09 273.681 733.52 293.105C752.94 312.53 776.01 327.939 801.39 338.452C826.76 348.964 853.97 354.375 881.44 354.375M463.06 563.563H672.25C672.25 591.033 666.84 618.235 656.33 643.615C645.81 668.995 630.41 692.056 610.98 711.481C591.56 730.905 568.49 746.314 543.11 756.827C517.74 767.339 490.53 772.75 463.06 772.75V563.563ZM881.44 354.375C908.91 354.375 936.11 359.786 961.49 370.299C986.87 380.811 1009.93 396.22 1029.36 415.645C1048.78 435.07 1064.19 458.13 1074.7 483.51C1085.21 508.89 1090.62 536.092 1090.62 563.563M881.44 354.375V772.75C908.91 772.75 936.11 767.339 961.49 756.827C986.87 746.314 1009.93 730.905 1029.36 711.48C1048.78 692.056 1064.19 668.995 1074.7 643.615C1085.21 618.235 1090.62 591.033 1090.62 563.563M1090.62 563.563C1090.62 536.092 1096.04 508.89 1106.55 483.51C1117.06 458.13 1132.47 435.07 1151.89 415.645C1171.32 396.22 1194.38 380.811 1219.76 370.299C1245.14 359.786 1272.34 354.375 1299.81 354.375M1090.62 563.563C1090.62 591.033 1096.04 618.235 1106.55 643.615C1117.06 668.995 1132.47 692.056 1151.89 711.48C1171.32 730.905 1194.38 746.314 1219.76 756.827C1245.14 767.339 1272.34 772.75 1299.81 772.75M881.44 1191.12C840.06 1191.13 799.62 1178.86 765.22 1155.87C730.82 1132.88 704.01 1100.21 688.17 1061.99C672.34 1023.77 668.2 981.71 676.27 941.13C684.34 900.549 704.26 863.275 733.52 834.02C762.77 804.764 800.05 784.841 840.63 776.77C881.21 768.698 923.27 772.841 961.49 788.673C999.71 804.506 1032.38 831.318 1055.37 865.719C1078.36 900.12 1090.62 940.56 1090.62 981.94H881.44V1191.12ZM881.44 1191.12C908.91 1191.12 936.11 1196.54 961.49 1207.05C986.87 1217.56 1009.93 1232.97 1029.36 1252.39C1048.78 1271.82 1064.19 1294.88 1074.7 1320.26C1085.21 1345.64 1090.62 1372.84 1090.62 1400.31M881.44 1191.12V1609.5ZM881.44 1609.5C908.91 1609.5 936.11 1604.09 961.49 1593.58C986.87 1583.06 1009.93 1567.66 1029.36 1548.23C1048.78 1528.81 1064.19 1505.74 1074.7 1480.37C1085.21 1454.99 1090.62 1427.78 1090.62 1400.31M881.44 1609.5C853.97 1609.5 826.76 1614.91 801.39 1625.42C776.01 1635.94 752.94 1651.34 733.52 1670.77C714.09 1690.19 698.69 1713.26 688.17 1738.64C677.66 1764.01 672.25 1791.22 672.25 1818.69H881.44M881.44 1609.5V1818.69ZM1090.62 1400.31C1090.62 1358.94 1102.89 1318.49 1125.88 1284.09C1148.87 1249.69 1181.54 1222.88 1219.76 1207.05C1257.98 1191.22 1300.04 1187.07 1340.62 1195.14C1381.2 1203.22 1418.48 1223.14 1447.73 1252.39C1476.99 1281.65 1496.91 1318.92 1504.98 1359.5C1513.05 1400.08 1508.91 1442.14 1493.08 1480.37C1477.24 1518.59 1450.43 1551.26 1416.03 1574.25C1381.63 1597.23 1341.19 1609.5 1299.81 1609.5M1090.62 1400.31H1299.81V1609.5M881.44 2027.88C908.91 2027.88 936.11 2022.46 961.49 2011.95C986.87 2001.44 1009.93 1986.03 1029.36 1966.61C1048.78 1947.18 1064.19 1924.12 1074.7 1898.74C1085.21 1873.36 1090.62 1846.16 1090.62 1818.69H881.44M881.44 2027.88V1818.69ZM881.44 2027.88C853.97 2027.88 826.76 2033.29 801.39 2043.8C776.01 2054.31 752.94 2069.72 733.52 2089.14C714.09 2108.57 698.69 2131.63 688.17 2157.01M1509 145.188C1509 103.814 1496.73 63.37 1473.75 28.969C1450.76 -5.431 1418.09 -32.243 1379.87 -48.076C1341.64 -63.909 1299.58 -68.052 1259 -59.98C1218.42 -51.909 1181.15 -31.986 1151.89 -2.73C1122.64 26.525 1102.72 63.799 1094.64 104.377C1086.57 144.956 1090.72 187.016 1106.55 225.24C1122.38 263.464 1149.19 296.135 1183.59 319.121C1217.99 342.106 1258.44 354.375 1299.81 354.375M1509 145.188H1299.81V354.375M1509 145.188C1509 103.814 1521.27 63.37 1544.25 28.969C1567.24 -5.431 1599.91 -32.244 1638.14 -48.076C1676.36 -63.909 1718.42 -68.052 1759 -59.98C1799.58 -51.909 1836.85 -31.986 1866.11 -2.73C1895.36 26.525 1915.28 63.799 1923.36 104.377C1931.43 144.956 1927.28 187.016 1911.45 225.24C1895.62 263.464 1868.81 296.135 1834.41 319.121C1800.01 342.106 1759.56 354.375 1718.19 354.375M1509 145.188H1718.19V354.375M1299.81 354.375V772.75ZM1299.81 772.75C1327.28 772.75 1354.49 778.161 1379.87 788.673C1405.25 799.186 1428.31 814.595 1447.73 834.02C1467.16 853.445 1482.56 876.505 1493.08 901.885C1503.59 927.265 1509 954.47 1509 981.94M1299.81 772.75V1191.12C1327.28 1191.12 1354.49 1185.71 1379.87 1175.2C1405.25 1164.69 1428.31 1149.28 1447.73 1129.86C1467.16 1110.43 1482.56 1087.37 1493.08 1061.99C1503.59 1036.61 1509 1009.41 1509 981.94M1509 981.94C1509 1009.41 1514.41 1036.61 1524.92 1061.99C1535.44 1087.37 1550.84 1110.43 1570.27 1129.86C1589.69 1149.28 1612.76 1164.69 1638.14 1175.2C1663.51 1185.71 1690.72 1191.13 1718.19 1191.12M1509 981.94H1927.38ZM1299.81 1609.5C1327.28 1609.5 1354.49 1614.91 1379.87 1625.42C1405.25 1635.94 1428.31 1651.34 1447.73 1670.77C1467.16 1690.19 1482.56 1713.26 1493.08 1738.64C1503.59 1764.01 1509 1791.22 1509 1818.69C1509 1846.16 1503.59 1873.36 1493.08 1898.74C1482.56 1924.12 1467.16 1947.18 1447.73 1966.61C1428.31 1986.03 1405.25 2001.44 1379.87 2011.95C1354.49 2022.46 1327.28 2027.87 1299.81 2027.88V1609.5ZM1473.75 2120.84C1450.76 2086.44 1418.09 2059.63 1379.87 2043.8C1341.64 2027.97 1299.58 2023.82 1259 2031.89C1218.42 2039.97 1181.15 2059.89 1151.89 2089.14M1718.19 354.375C1690.72 354.375 1663.51 359.786 1638.14 370.299C1612.76 380.811 1589.69 396.22 1570.27 415.645C1550.84 435.07 1535.44 458.13 1524.92 483.51C1514.41 508.89 1509 536.092 1509 563.563C1509 591.033 1514.41 618.235 1524.92 643.615C1535.44 668.995 1550.84 692.056 1570.27 711.48C1589.69 730.905 1612.76 746.314 1638.14 756.827C1663.51 767.339 1690.72 772.75 1718.19 772.75V354.375ZM1718.19 1191.12C1745.66 1191.12 1772.86 1185.71 1798.24 1175.2C1823.62 1164.69 1846.68 1149.28 1866.11 1129.86C1885.53 1110.43 1900.94 1087.37 1911.45 1061.99C1921.96 1036.61 1927.38 1009.41 1927.38 981.94M1718.19 1191.12C1690.72 1191.12 1663.51 1196.54 1638.14 1207.05C1612.76 1217.56 1589.69 1232.97 1570.27 1252.39C1550.84 1271.82 1535.44 1294.88 1524.92 1320.26C1514.41 1345.64 1509 1372.84 1509 1400.31H1718.19M1718.19 1191.12V1400.31ZM1927.38 981.94C1927.38 940.56 1939.64 900.12 1962.63 865.719C1985.62 831.318 2018.29 804.506 2056.51 788.673C2094.73 772.841 2136.79 768.698 2177.37 776.77M1927.38 981.94H2136.56V1191.12M1927.38 1400.31C1927.38 1427.78 1921.96 1454.99 1911.45 1480.37C1900.94 1505.74 1885.53 1528.81 1866.11 1548.23C1846.68 1567.66 1823.62 1583.06 1798.24 1593.58C1772.86 1604.09 1745.66 1609.5 1718.19 1609.5V1400.31M1927.38 1400.31H1718.19ZM1927.38 1400.31C1927.37 1372.84 1932.79 1345.64 1943.3 1320.26C1953.81 1294.88 1969.22 1271.82 1988.64 1252.39C2008.07 1232.97 2031.13 1217.56 2056.51 1207.05C2081.89 1196.54 2109.09 1191.12 2136.56 1191.12M1927.38 1400.31C1927.38 1427.78 1932.79 1454.99 1943.3 1480.37C1953.81 1505.74 1969.22 1528.81 1988.64 1548.23C2008.07 1567.66 2031.13 1583.06 2056.51 1593.58C2081.89 1604.09 2109.09 1609.5 2136.56 1609.5V1191.12M1927.38 1818.69C1927.38 1777.31 1915.11 1736.87 1892.12 1702.47C1869.13 1668.07 1836.46 1641.26 1798.24 1625.42C1760.02 1609.59 1717.96 1605.45 1677.38 1613.52C1636.8 1621.59 1599.52 1641.51 1570.27 1670.77C1541.01 1700.03 1521.09 1737.3 1513.02 1777.88C1504.95 1818.46 1509.09 1860.52 1524.92 1898.74C1540.76 1936.96 1567.57 1969.63 1601.97 1992.62C1636.37 2015.61 1676.81 2027.88 1718.19 2027.88V1818.69H1927.38ZM1927.38 1818.69C1927.38 1777.31 1939.64 1736.87 1962.63 1702.47C1985.62 1668.07 2018.29 1641.26 2056.51 1625.42C2094.73 1609.59 2136.79 1605.45 2177.37 1613.52M1927.38 1818.69H2136.56V2027.88M1866.11 2089.14C1836.85 2059.89 1799.58 2039.97 1759 2031.89C1718.42 2023.82 1676.36 2027.97 1638.14 2043.8C1599.91 2059.63 1567.24 2086.44 1544.25 2120.84M1927.38 145.188C1927.38 172.658 1932.79 199.86 1943.3 225.24C1953.81 250.62 1969.22 273.681 1988.64 293.105C2008.07 312.53 2031.13 327.939 2056.51 338.452C2081.89 348.964 2109.09 354.375 2136.56 354.375M2136.56 354.375C2109.09 354.375 2081.89 359.786 2056.51 370.299C2031.13 380.811 2008.07 396.22 1988.64 415.645C1969.22 435.07 1953.81 458.13 1943.3 483.51C1932.79 508.89 1927.37 536.092 1927.38 563.563H2136.56M2136.56 354.375V563.563ZM2136.56 772.75V563.563Z" fill="white" fill-opacity="0.22"/>
<path d="M-1628.81 354.375C-1587.44 354.375 -1546.99 342.106 -1512.59 319.121C-1478.19 296.135 -1451.38 263.464 -1435.55 225.24C-1419.72 187.016 -1415.57 144.956 -1423.64 104.377C-1431.72 63.799 -1451.64 26.525 -1480.89 -2.73C-1510.15 -31.986 -1547.42 -51.909 -1588 -59.98C-1628.58 -68.052 -1670.64 -63.909 -1708.87 -48.076C-1747.09 -32.244 -1779.76 -5.431 -1802.74 28.969C-1825.73 63.37 -1838 103.814 -1838 145.188H-1628.81V354.375ZM-1628.81 354.375C-1656.28 354.375 -1683.49 359.786 -1708.87 370.299C-1734.25 380.811 -1757.31 396.22 -1776.73 415.645C-1796.15 435.07 -1811.56 458.13 -1822.08 483.51C-1832.59 508.89 -1838 536.092 -1838 563.563C-1838 591.033 -1832.59 618.235 -1822.08 643.615C-1811.56 668.995 -1796.15 692.056 -1776.73 711.48C-1757.31 730.905 -1734.25 746.314 -1708.87 756.827C-1683.49 767.339 -1656.28 772.75 -1628.81 772.75V354.375ZM-1628.81 1191.12C-1656.28 1191.13 -1683.49 1185.71 -1708.87 1175.2C-1734.25 1164.69 -1757.31 1149.28 -1776.73 1129.86C-1796.15 1110.43 -1811.56 1087.37 -1822.08 1061.99C-1832.59 1036.61 -1838 1009.41 -1838 981.94H-1419.62M-1628.81 1191.12C-1601.34 1191.12 -1574.14 1185.71 -1548.76 1175.2C-1523.38 1164.69 -1500.32 1149.28 -1480.89 1129.86C-1461.47 1110.43 -1446.06 1087.37 -1435.55 1061.99C-1425.04 1036.61 -1419.62 1009.41 -1419.62 981.94M-1628.81 1191.12C-1656.28 1191.12 -1683.49 1196.54 -1708.87 1207.05C-1734.25 1217.56 -1757.31 1232.97 -1776.73 1252.39C-1796.15 1271.82 -1811.56 1294.88 -1822.08 1320.26C-1832.59 1345.64 -1838 1372.84 -1838 1400.31H-1628.81M-1628.81 1191.12V1400.31M-1419.62 981.94C-1419.62 940.56 -1407.36 900.12 -1384.37 865.719C-1361.38 831.318 -1328.71 804.506 -1290.49 788.673C-1252.27 772.841 -1210.21 768.698 -1169.63 776.77C-1129.05 784.841 -1091.77 804.764 -1062.52 834.02C-1033.26 863.275 -1013.34 900.549 -1005.27 941.13C-997.198 981.71 -1001.34 1023.77 -1017.17 1061.99C-1033.01 1100.21 -1059.82 1132.88 -1094.22 1155.87C-1128.62 1178.86 -1169.06 1191.13 -1210.44 1191.12M-1419.62 981.94H-1210.44V1191.12M-1628.81 1400.31V1609.5C-1601.34 1609.5 -1574.14 1604.09 -1548.76 1593.58C-1523.38 1583.06 -1500.32 1567.66 -1480.89 1548.23C-1461.47 1528.81 -1446.06 1505.74 -1435.55 1480.37C-1425.04 1454.99 -1419.62 1427.78 -1419.62 1400.31M-1628.81 1400.31H-1419.62M-1210.44 1191.12C-1237.91 1191.12 -1265.11 1196.54 -1290.49 1207.05C-1315.87 1217.56 -1338.93 1232.97 -1358.36 1252.39C-1377.78 1271.82 -1393.19 1294.88 -1403.7 1320.26C-1414.21 1345.64 -1419.62 1372.84 -1419.62 1400.31M-1210.44 1191.12V1609.5C-1237.91 1609.5 -1265.11 1604.09 -1290.49 1593.58C-1315.87 1583.06 -1338.93 1567.66 -1358.36 1548.23C-1377.78 1528.81 -1393.19 1505.74 -1403.7 1480.37C-1414.21 1454.99 -1419.62 1427.78 -1419.62 1400.31M-1419.62 1818.69C-1419.62 1777.31 -1431.89 1736.87 -1454.88 1702.47C-1477.86 1668.07 -1510.54 1641.26 -1548.76 1625.42C-1586.98 1609.59 -1629.04 1605.45 -1669.62 1613.52C-1710.2 1621.59 -1747.48 1641.51 -1776.73 1670.77C-1805.99 1700.03 -1825.91 1737.3 -1833.98 1777.88C-1842.05 1818.46 -1837.91 1860.52 -1822.08 1898.74C-1806.24 1936.96 -1779.43 1969.63 -1745.03 1992.62C-1710.63 2015.61 -1670.19 2027.88 -1628.81 2027.88V1818.69H-1419.62ZM-1419.62 1818.69C-1419.62 1777.31 -1407.36 1736.87 -1384.37 1702.47C-1361.38 1668.07 -1328.71 1641.26 -1290.49 1625.42C-1252.27 1609.59 -1210.21 1605.45 -1169.63 1613.52C-1129.05 1621.59 -1091.77 1641.51 -1062.52 1670.77C-1033.26 1700.03 -1013.34 1737.3 -1005.27 1777.88C-997.198 1818.46 -1001.34 1860.52 -1017.17 1898.74C-1033.01 1936.96 -1059.82 1969.63 -1094.22 1992.62C-1128.62 2015.61 -1169.06 2027.88 -1210.44 2027.88V1818.69H-1419.62ZM-1480.89 2089.14C-1510.15 2059.89 -1547.42 2039.97 -1588 2031.89C-1628.58 2023.82 -1670.64 2027.97 -1708.87 2043.8C-1747.09 2059.63 -1779.76 2086.44 -1802.74 2120.84M-1210.44 354.375C-1237.91 354.375 -1265.11 348.964 -1290.49 338.452C-1315.87 327.939 -1338.93 312.53 -1358.36 293.105C-1377.78 273.681 -1393.19 250.62 -1403.7 225.24C-1414.21 199.86 -1419.62 172.658 -1419.62 145.188H-1001.25M-1210.44 354.375C-1182.97 354.375 -1155.77 348.964 -1130.39 338.452C-1105.01 327.939 -1081.94 312.53 -1062.52 293.105C-1043.09 273.681 -1027.69 250.62 -1017.17 225.24C-1006.66 199.86 -1001.25 172.658 -1001.25 145.188M-1210.44 354.375C-1237.91 354.375 -1265.11 359.786 -1290.49 370.299C-1315.87 380.811 -1338.93 396.22 -1358.36 415.645C-1377.78 435.07 -1393.19 458.13 -1403.7 483.51C-1414.21 508.89 -1419.62 536.092 -1419.62 563.563H-1210.44M-1210.44 354.375V563.563M-1001.25 145.188C-1001.25 117.717 -995.839 90.515 -985.326 65.135C-974.814 39.755 -959.405 16.695 -939.98 -2.73C-920.555 -22.155 -897.495 -37.564 -872.115 -48.076C-846.735 -58.589 -819.53 -64 -792.06 -64V354.375M-1001.25 145.188C-1001.25 172.658 -995.839 199.86 -985.326 225.24C-974.814 250.62 -959.405 273.681 -939.98 293.105C-920.555 312.53 -897.495 327.939 -872.115 338.452C-846.735 348.964 -819.53 354.375 -792.06 354.375M-1210.44 563.563H-1001.25C-1001.25 591.033 -1006.66 618.235 -1017.17 643.615C-1027.69 668.995 -1043.09 692.056 -1062.52 711.481C-1081.94 730.905 -1105.01 746.314 -1130.39 756.827C-1155.77 767.339 -1182.97 772.75 -1210.44 772.75V563.563ZM-792.06 354.375C-764.59 354.375 -737.39 359.786 -712.01 370.299C-686.63 380.811 -663.57 396.22 -644.14 415.645C-624.72 435.07 -609.31 458.13 -598.8 483.51C-588.29 508.89 -582.87 536.092 -582.87 563.563M-792.06 354.375V772.75C-764.59 772.75 -737.39 767.339 -712.01 756.827C-686.63 746.314 -663.57 730.905 -644.14 711.48C-624.72 692.056 -609.31 668.995 -598.8 643.615C-588.29 618.235 -582.87 591.033 -582.87 563.563M-582.87 563.563C-582.87 536.092 -577.46 508.89 -566.95 483.51C-556.44 458.13 -541.03 435.07 -521.61 415.645C-502.18 396.22 -479.12 380.811 -453.74 370.299C-428.36 359.786 -401.16 354.375 -373.69 354.375M-582.87 563.563C-582.87 591.033 -577.46 618.235 -566.95 643.615C-556.44 668.995 -541.03 692.056 -521.61 711.48C-502.18 730.905 -479.12 746.314 -453.74 756.827C-428.36 767.339 -401.16 772.75 -373.69 772.75M-373.69 354.375C-415.06 354.375 -455.51 342.106 -489.91 319.121C-524.31 296.135 -551.12 263.464 -566.95 225.24C-582.78 187.016 -586.93 144.956 -578.86 104.377C-570.78 63.799 -550.86 26.525 -521.61 -2.73C-492.35 -31.986 -455.08 -51.909 -414.5 -59.98C-373.92 -68.052 -331.86 -63.909 -293.63 -48.076C-255.41 -32.243 -222.74 -5.431 -199.75 28.969C-176.77 63.37 -164.5 103.814 -164.5 145.188M-373.69 354.375V145.188H-164.5M-373.69 354.375V772.75M-373.69 772.75C-346.22 772.75 -319.01 778.161 -293.63 788.673C-268.25 799.186 -245.19 814.595 -225.77 834.02C-206.34 853.445 -190.94 876.505 -180.42 901.885C-169.91 927.265 -164.5 954.47 -164.5 981.94M-373.69 772.75V1191.12C-346.22 1191.12 -319.01 1185.71 -293.63 1175.2C-268.25 1164.69 -245.19 1149.28 -225.77 1129.86C-206.34 1110.43 -190.94 1087.37 -180.42 1061.99C-169.91 1036.61 -164.5 1009.41 -164.5 981.94M-792.06 1191.12C-833.44 1191.13 -873.88 1178.86 -908.281 1155.87C-942.681 1132.88 -969.494 1100.21 -985.326 1061.99C-1001.16 1023.77 -1005.3 981.71 -997.23 941.13C-989.159 900.549 -969.236 863.275 -939.98 834.02C-910.725 804.764 -873.451 784.841 -832.87 776.77C-792.29 768.698 -750.23 772.841 -712.01 788.673C-673.79 804.506 -641.12 831.318 -618.13 865.719C-595.14 900.12 -582.87 940.56 -582.87 981.94H-792.06V1191.12ZM-792.06 1191.12C-764.59 1191.12 -737.39 1196.54 -712.01 1207.05C-686.63 1217.56 -663.57 1232.97 -644.14 1252.39C-624.72 1271.82 -609.31 1294.88 -598.8 1320.26C-588.29 1345.64 -582.87 1372.84 -582.87 1400.31M-792.06 1191.12V1609.5M-582.87 1400.31C-582.87 1427.78 -588.29 1454.99 -598.8 1480.37C-609.31 1505.74 -624.72 1528.81 -644.14 1548.23C-663.57 1567.66 -686.63 1583.06 -712.01 1593.58C-737.39 1604.09 -764.59 1609.5 -792.06 1609.5M-582.87 1400.31C-582.87 1358.94 -570.61 1318.49 -547.62 1284.09C-524.63 1249.69 -491.96 1222.88 -453.74 1207.05C-415.52 1191.22 -373.46 1187.07 -332.88 1195.14C-292.3 1203.22 -255.02 1223.14 -225.77 1252.39C-196.51 1281.65 -176.59 1318.92 -168.52 1359.5C-160.45 1400.08 -164.59 1442.14 -180.42 1480.37C-196.26 1518.59 -223.07 1551.26 -257.47 1574.25C-291.87 1597.23 -332.31 1609.5 -373.69 1609.5M-582.87 1400.31H-373.69V1609.5M-792.06 1609.5C-819.53 1609.5 -846.735 1614.91 -872.115 1625.42C-897.495 1635.94 -920.555 1651.34 -939.98 1670.77C-959.405 1690.19 -974.814 1713.26 -985.326 1738.64C-995.839 1764.01 -1001.25 1791.22 -1001.25 1818.69H-792.06M-792.06 1609.5V1818.69M-792.06 1818.69H-582.87C-582.87 1846.16 -588.29 1873.36 -598.8 1898.74C-609.31 1924.12 -624.72 1947.18 -644.14 1966.61C-663.57 1986.03 -686.63 2001.44 -712.01 2011.95C-737.39 2022.46 -764.59 2027.88 -792.06 2027.88M-792.06 1818.69V2027.88M-373.69 1609.5C-346.22 1609.5 -319.01 1614.91 -293.63 1625.42C-268.25 1635.94 -245.19 1651.34 -225.77 1670.77C-206.34 1690.19 -190.94 1713.26 -180.42 1738.64C-169.91 1764.01 -164.5 1791.22 -164.5 1818.69C-164.5 1846.16 -169.91 1873.36 -180.42 1898.74C-190.94 1924.12 -206.34 1947.18 -225.77 1966.61C-245.19 1986.03 -268.25 2001.44 -293.63 2011.95C-319.01 2022.46 -346.22 2027.87 -373.69 2027.88V1609.5ZM-792.06 2027.88C-819.53 2027.88 -846.735 2033.29 -872.115 2043.8C-897.495 2054.31 -920.555 2069.72 -939.98 2089.14C-959.405 2108.57 -974.814 2131.63 -985.326 2157.01M-164.5 145.188C-164.5 103.814 -152.23 63.37 -129.25 28.969C-106.26 -5.431 -73.59 -32.244 -35.36 -48.076C2.86002 -63.909 44.92 -68.052 85.5 -59.98C126.08 -51.909 163.35 -31.986 192.61 -2.73C221.86 26.525 241.78 63.799 249.86 104.377C257.93 144.956 253.78 187.016 237.95 225.24C222.12 263.464 195.31 296.135 160.91 319.121C126.51 342.106 86.0599 354.375 44.6899 354.375M-164.5 145.188H44.6899V354.375M44.6899 354.375C17.2199 354.375 -9.98998 359.786 -35.36 370.299C-60.74 380.811 -83.81 396.22 -103.23 415.645C-122.66 435.07 -138.06 458.13 -148.58 483.51C-159.09 508.89 -164.5 536.092 -164.5 563.563C-164.5 591.033 -159.09 618.235 -148.58 643.615C-138.06 668.995 -122.66 692.056 -103.23 711.48C-83.81 730.905 -60.74 746.314 -35.36 756.827C-9.98998 767.339 17.2199 772.75 44.6899 772.75V354.375ZM-164.5 981.94C-164.5 1009.41 -159.09 1036.61 -148.58 1061.99C-138.06 1087.37 -122.66 1110.43 -103.23 1129.86C-83.81 1149.28 -60.74 1164.69 -35.36 1175.2C-9.98998 1185.71 17.2199 1191.13 44.6899 1191.12M-164.5 981.94H253.88M44.6899 1191.12C72.1599 1191.12 99.36 1185.71 124.74 1175.2C150.12 1164.69 173.18 1149.28 192.61 1129.86C212.03 1110.43 227.44 1087.37 237.95 1061.99C248.46 1036.61 253.88 1009.41 253.88 981.94M44.6899 1191.12C17.2199 1191.12 -9.98998 1196.54 -35.36 1207.05C-60.74 1217.56 -83.81 1232.97 -103.23 1252.39C-122.66 1271.82 -138.06 1294.88 -148.58 1320.26C-159.09 1345.64 -164.5 1372.84 -164.5 1400.31H44.6899M44.6899 1191.12V1400.31M253.88 981.94C253.88 940.56 266.14 900.12 289.13 865.719C312.12 831.318 344.79 804.506 383.01 788.673C421.23 772.841 463.29 768.698 503.87 776.77C544.45 784.841 581.73 804.764 610.98 834.02C640.24 863.275 660.16 900.549 668.23 941.13C676.3 981.71 672.16 1023.77 656.33 1061.99C640.49 1100.21 613.68 1132.88 579.28 1155.87C544.88 1178.86 504.44 1191.13 463.06 1191.12M253.88 981.94H463.06V1191.12M-199.75 2120.84C-222.74 2086.44 -255.41 2059.63 -293.63 2043.8C-331.86 2027.97 -373.92 2023.82 -414.5 2031.89C-455.08 2039.97 -492.35 2059.89 -521.61 2089.14M44.6899 1400.31V1609.5C72.1599 1609.5 99.36 1604.09 124.74 1593.58C150.12 1583.06 173.18 1567.66 192.61 1548.23C212.03 1528.81 227.44 1505.74 237.95 1480.37C248.46 1454.99 253.88 1427.78 253.88 1400.31M44.6899 1400.31H253.88M463.06 1191.12C435.59 1191.12 408.39 1196.54 383.01 1207.05C357.63 1217.56 334.57 1232.97 315.14 1252.39C295.72 1271.82 280.31 1294.88 269.8 1320.26C259.29 1345.64 253.87 1372.84 253.88 1400.31M463.06 1191.12V1609.5C435.59 1609.5 408.39 1604.09 383.01 1593.58C357.63 1583.06 334.57 1567.66 315.14 1548.23C295.72 1528.81 280.31 1505.74 269.8 1480.37C259.29 1454.99 253.88 1427.78 253.88 1400.31M253.88 1818.69C253.88 1777.31 241.61 1736.87 218.62 1702.47C195.63 1668.07 162.96 1641.26 124.74 1625.42C86.52 1609.59 44.46 1605.45 3.88 1613.52C-36.7 1621.59 -73.97 1641.51 -103.23 1670.77C-132.49 1700.03 -152.41 1737.3 -160.48 1777.88C-168.55 1818.46 -164.41 1860.52 -148.58 1898.74C-132.74 1936.96 -105.93 1969.63 -71.53 1992.62C-37.13 2015.61 3.30994 2027.88 44.6899 2027.88V1818.69H253.88ZM253.88 1818.69C253.88 1777.31 266.14 1736.87 289.13 1702.47C312.12 1668.07 344.79 1641.26 383.01 1625.42C421.23 1609.59 463.29 1605.45 503.87 1613.52C544.45 1621.59 581.73 1641.51 610.98 1670.77C640.24 1700.03 660.16 1737.3 668.23 1777.88C676.3 1818.46 672.16 1860.52 656.33 1898.74C640.49 1936.96 613.68 1969.63 579.28 1992.62C544.88 2015.61 504.44 2027.88 463.06 2027.88V1818.69H253.88ZM192.61 2089.14C163.35 2059.89 126.08 2039.97 85.5 2031.89C44.92 2023.82 2.86002 2027.97 -35.36 2043.8C-73.59 2059.63 -106.26 2086.44 -129.25 2120.84M463.06 354.375C435.59 354.375 408.39 348.964 383.01 338.452C357.63 327.939 334.57 312.53 315.14 293.105C295.72 273.681 280.31 250.62 269.8 225.24C259.29 199.86 253.87 172.658 253.87 145.188H672.25M463.06 354.375C490.53 354.375 517.74 348.964 543.11 338.452C568.49 327.939 591.56 312.53 610.98 293.105C630.41 273.681 645.81 250.62 656.33 225.24C666.84 199.86 672.25 172.658 672.25 145.188M463.06 354.375C435.59 354.375 408.39 359.786 383.01 370.299C357.63 380.811 334.57 396.22 315.14 415.645C295.72 435.07 280.31 458.13 269.8 483.51C259.29 508.89 253.87 536.092 253.88 563.563H463.06M463.06 354.375V563.563M672.25 145.188C672.25 117.717 677.66 90.515 688.17 65.135C698.69 39.755 714.09 16.695 733.52 -2.73C752.94 -22.155 776.01 -37.564 801.39 -48.076C826.76 -58.589 853.97 -64 881.44 -64V354.375M672.25 145.188C672.25 172.658 677.66 199.86 688.17 225.24C698.69 250.62 714.09 273.681 733.52 293.105C752.94 312.53 776.01 327.939 801.39 338.452C826.76 348.964 853.97 354.375 881.44 354.375M463.06 563.563H672.25C672.25 591.033 666.84 618.235 656.33 643.615C645.81 668.995 630.41 692.056 610.98 711.481C591.56 730.905 568.49 746.314 543.11 756.827C517.74 767.339 490.53 772.75 463.06 772.75V563.563ZM881.44 354.375C908.91 354.375 936.11 359.786 961.49 370.299C986.87 380.811 1009.93 396.22 1029.36 415.645C1048.78 435.07 1064.19 458.13 1074.7 483.51C1085.21 508.89 1090.62 536.092 1090.62 563.563M881.44 354.375V772.75C908.91 772.75 936.11 767.339 961.49 756.827C986.87 746.314 1009.93 730.905 1029.36 711.48C1048.78 692.056 1064.19 668.995 1074.7 643.615C1085.21 618.235 1090.62 591.033 1090.62 563.563M1090.62 563.563C1090.62 536.092 1096.04 508.89 1106.55 483.51C1117.06 458.13 1132.47 435.07 1151.89 415.645C1171.32 396.22 1194.38 380.811 1219.76 370.299C1245.14 359.786 1272.34 354.375 1299.81 354.375M1090.62 563.563C1090.62 591.033 1096.04 618.235 1106.55 643.615C1117.06 668.995 1132.47 692.056 1151.89 711.48C1171.32 730.905 1194.38 746.314 1219.76 756.827C1245.14 767.339 1272.34 772.75 1299.81 772.75M1299.81 354.375C1258.44 354.375 1217.99 342.106 1183.59 319.121C1149.19 296.135 1122.38 263.464 1106.55 225.24C1090.72 187.016 1086.57 144.956 1094.64 104.377C1102.72 63.799 1122.64 26.525 1151.89 -2.73C1181.15 -31.986 1218.42 -51.909 1259 -59.98C1299.58 -68.052 1341.64 -63.909 1379.87 -48.076C1418.09 -32.243 1450.76 -5.431 1473.75 28.969C1496.73 63.37 1509 103.814 1509 145.188M1299.81 354.375V145.188H1509M1299.81 354.375V772.75M1299.81 772.75C1327.28 772.75 1354.49 778.161 1379.87 788.673C1405.25 799.186 1428.31 814.595 1447.73 834.02C1467.16 853.445 1482.56 876.505 1493.08 901.885C1503.59 927.265 1509 954.47 1509 981.94M1299.81 772.75V1191.12C1327.28 1191.12 1354.49 1185.71 1379.87 1175.2C1405.25 1164.69 1428.31 1149.28 1447.73 1129.86C1467.16 1110.43 1482.56 1087.37 1493.08 1061.99C1503.59 1036.61 1509 1009.41 1509 981.94M881.44 1191.12C840.06 1191.13 799.62 1178.86 765.22 1155.87C730.82 1132.88 704.01 1100.21 688.17 1061.99C672.34 1023.77 668.2 981.71 676.27 941.13C684.34 900.549 704.26 863.275 733.52 834.02C762.77 804.764 800.05 784.841 840.63 776.77C881.21 768.698 923.27 772.841 961.49 788.673C999.71 804.506 1032.38 831.318 1055.37 865.719C1078.36 900.12 1090.62 940.56 1090.62 981.94H881.44V1191.12ZM881.44 1191.12C908.91 1191.12 936.11 1196.54 961.49 1207.05C986.87 1217.56 1009.93 1232.97 1029.36 1252.39C1048.78 1271.82 1064.19 1294.88 1074.7 1320.26C1085.21 1345.64 1090.62 1372.84 1090.62 1400.31M881.44 1191.12V1609.5M1090.62 1400.31C1090.62 1427.78 1085.21 1454.99 1074.7 1480.37C1064.19 1505.74 1048.78 1528.81 1029.36 1548.23C1009.93 1567.66 986.87 1583.06 961.49 1593.58C936.11 1604.09 908.91 1609.5 881.44 1609.5M1090.62 1400.31C1090.62 1358.94 1102.89 1318.49 1125.88 1284.09C1148.87 1249.69 1181.54 1222.88 1219.76 1207.05C1257.98 1191.22 1300.04 1187.07 1340.62 1195.14C1381.2 1203.22 1418.48 1223.14 1447.73 1252.39C1476.99 1281.65 1496.91 1318.92 1504.98 1359.5C1513.05 1400.08 1508.91 1442.14 1493.08 1480.37C1477.24 1518.59 1450.43 1551.26 1416.03 1574.25C1381.63 1597.23 1341.19 1609.5 1299.81 1609.5M1090.62 1400.31H1299.81V1609.5M881.44 1609.5C853.97 1609.5 826.76 1614.91 801.39 1625.42C776.01 1635.94 752.94 1651.34 733.52 1670.77C714.09 1690.19 698.69 1713.26 688.17 1738.64C677.66 1764.01 672.25 1791.22 672.25 1818.69H881.44M881.44 1609.5V1818.69M881.44 1818.69H1090.62C1090.62 1846.16 1085.21 1873.36 1074.7 1898.74C1064.19 1924.12 1048.78 1947.18 1029.36 1966.61C1009.93 1986.03 986.87 2001.44 961.49 2011.95C936.11 2022.46 908.91 2027.88 881.44 2027.88M881.44 1818.69V2027.88M1299.81 1609.5C1327.28 1609.5 1354.49 1614.91 1379.87 1625.42C1405.25 1635.94 1428.31 1651.34 1447.73 1670.77C1467.16 1690.19 1482.56 1713.26 1493.08 1738.64C1503.59 1764.01 1509 1791.22 1509 1818.69C1509 1846.16 1503.59 1873.36 1493.08 1898.74C1482.56 1924.12 1467.16 1947.18 1447.73 1966.61C1428.31 1986.03 1405.25 2001.44 1379.87 2011.95C1354.49 2022.46 1327.28 2027.87 1299.81 2027.88V1609.5ZM881.44 2027.88C853.97 2027.88 826.76 2033.29 801.39 2043.8C776.01 2054.31 752.94 2069.72 733.52 2089.14C714.09 2108.57 698.69 2131.63 688.17 2157.01M1509 145.188C1509 103.814 1521.27 63.37 1544.25 28.969C1567.24 -5.431 1599.91 -32.244 1638.14 -48.076C1676.36 -63.909 1718.42 -68.052 1759 -59.98C1799.58 -51.909 1836.85 -31.986 1866.11 -2.73C1895.36 26.525 1915.28 63.799 1923.36 104.377C1931.43 144.956 1927.28 187.016 1911.45 225.24C1895.62 263.464 1868.81 296.135 1834.41 319.121C1800.01 342.106 1759.56 354.375 1718.19 354.375M1509 145.188H1718.19V354.375M1718.19 354.375C1690.72 354.375 1663.51 359.786 1638.14 370.299C1612.76 380.811 1589.69 396.22 1570.27 415.645C1550.84 435.07 1535.44 458.13 1524.92 483.51C1514.41 508.89 1509 536.092 1509 563.563C1509 591.033 1514.41 618.235 1524.92 643.615C1535.44 668.995 1550.84 692.056 1570.27 711.48C1589.69 730.905 1612.76 746.314 1638.14 756.827C1663.51 767.339 1690.72 772.75 1718.19 772.75V354.375ZM1509 981.94C1509 1009.41 1514.41 1036.61 1524.92 1061.99C1535.44 1087.37 1550.84 1110.43 1570.27 1129.86C1589.69 1149.28 1612.76 1164.69 1638.14 1175.2C1663.51 1185.71 1690.72 1191.13 1718.19 1191.12M1509 981.94H1927.38M1718.19 1191.12C1745.66 1191.12 1772.86 1185.71 1798.24 1175.2C1823.62 1164.69 1846.68 1149.28 1866.11 1129.86C1885.53 1110.43 1900.94 1087.37 1911.45 1061.99C1921.96 1036.61 1927.38 1009.41 1927.38 981.94M1718.19 1191.12C1690.72 1191.12 1663.51 1196.54 1638.14 1207.05C1612.76 1217.56 1589.69 1232.97 1570.27 1252.39C1550.84 1271.82 1535.44 1294.88 1524.92 1320.26C1514.41 1345.64 1509 1372.84 1509 1400.31H1718.19M1718.19 1191.12V1400.31M1927.38 981.94C1927.38 940.56 1939.64 900.12 1962.63 865.719C1985.62 831.318 2018.29 804.506 2056.51 788.673C2094.73 772.841 2136.79 768.698 2177.37 776.77M1927.38 981.94H2136.56V1191.12M1473.75 2120.84C1450.76 2086.44 1418.09 2059.63 1379.87 2043.8C1341.64 2027.97 1299.58 2023.82 1259 2031.89C1218.42 2039.97 1181.15 2059.89 1151.89 2089.14M1718.19 1400.31V1609.5C1745.66 1609.5 1772.86 1604.09 1798.24 1593.58C1823.62 1583.06 1846.68 1567.66 1866.11 1548.23C1885.53 1528.81 1900.94 1505.74 1911.45 1480.37C1921.96 1454.99 1927.38 1427.78 1927.38 1400.31M1718.19 1400.31H1927.38M2136.56 1191.12C2109.09 1191.12 2081.89 1196.54 2056.51 1207.05C2031.13 1217.56 2008.07 1232.97 1988.64 1252.39C1969.22 1271.82 1953.81 1294.88 1943.3 1320.26C1932.79 1345.64 1927.37 1372.84 1927.38 1400.31M2136.56 1191.12V1609.5C2109.09 1609.5 2081.89 1604.09 2056.51 1593.58C2031.13 1583.06 2008.07 1567.66 1988.64 1548.23C1969.22 1528.81 1953.81 1505.74 1943.3 1480.37C1932.79 1454.99 1927.38 1427.78 1927.38 1400.31M1927.38 1818.69C1927.38 1777.31 1915.11 1736.87 1892.12 1702.47C1869.13 1668.07 1836.46 1641.26 1798.24 1625.42C1760.02 1609.59 1717.96 1605.45 1677.38 1613.52C1636.8 1621.59 1599.52 1641.51 1570.27 1670.77C1541.01 1700.03 1521.09 1737.3 1513.02 1777.88C1504.95 1818.46 1509.09 1860.52 1524.92 1898.74C1540.76 1936.96 1567.57 1969.63 1601.97 1992.62C1636.37 2015.61 1676.81 2027.88 1718.19 2027.88V1818.69H1927.38ZM1927.38 1818.69C1927.38 1777.31 1939.64 1736.87 1962.63 1702.47C1985.62 1668.07 2018.29 1641.26 2056.51 1625.42C2094.73 1609.59 2136.79 1605.45 2177.37 1613.52M1927.38 1818.69H2136.56V2027.88M1866.11 2089.14C1836.85 2059.89 1799.58 2039.97 1759 2031.89C1718.42 2023.82 1676.36 2027.97 1638.14 2043.8C1599.91 2059.63 1567.24 2086.44 1544.25 2120.84M1927.38 145.188C1927.38 172.658 1932.79 199.86 1943.3 225.24C1953.81 250.62 1969.22 273.681 1988.64 293.105C2008.07 312.53 2031.13 327.939 2056.51 338.452C2081.89 348.964 2109.09 354.375 2136.56 354.375M2136.56 354.375C2109.09 354.375 2081.89 359.786 2056.51 370.299C2031.13 380.811 2008.07 396.22 1988.64 415.645C1969.22 435.07 1953.81 458.13 1943.3 483.51C1932.79 508.89 1927.37 536.092 1927.38 563.563H2136.56M2136.56 354.375V563.563M2136.56 563.563V772.75" stroke="black" stroke-miterlimit="10" stroke-dasharray="3 3"/>
</g>
</svg>
