<svg width="20" height="19" viewBox="0 0 20 19" fill="none" xmlns="http://www.w3.org/2000/svg">
<path d="M0.68 17.707L1.1415 14.4055C2.15917 14.4765 2.952 14.2872 3.52 13.8375C4.088 13.3878 4.46667 12.7607 4.656 11.956C4.84533 11.1513 4.88083 10.2402 4.7625 9.2225H0.68V0.666996H8.5255V9.9325C8.5255 12.7252 7.851 14.8315 6.502 16.2515C5.17667 17.6715 3.236 18.1567 0.68 17.707ZM11.614 17.707L12.0755 14.4055C13.0932 14.4765 13.886 14.2872 14.454 13.8375C15.022 13.3878 15.4007 12.7607 15.59 11.956C15.7793 11.1513 15.8148 10.2402 15.6965 9.2225H11.614V0.666996H19.4595V9.9325C19.4595 12.7252 18.785 14.8315 17.436 16.2515C16.1107 17.6715 14.17 18.1567 11.614 17.707Z" fill="#333333"/>
</svg>
