<svg width="20" height="18" viewBox="0 0 20 18" fill="none" xmlns="http://www.w3.org/2000/svg">
<path d="M19.4595 0.702498L19.0335 4.004C17.9922 3.933 17.1875 4.12233 16.6195 4.572C16.0515 5.02166 15.6728 5.64883 15.4835 6.4535C15.2942 7.25816 15.2587 8.16933 15.377 9.187H19.4595V17.7425H11.614V8.477C11.614 5.68433 12.2767 3.578 13.602 2.158C14.951 0.714332 16.9035 0.229165 19.4595 0.702498ZM8.5255 0.702498L8.0995 4.004C7.05817 3.933 6.2535 4.12233 5.6855 4.572C5.1175 5.02166 4.73883 5.64883 4.5495 6.4535C4.36017 7.25816 4.32467 8.16933 4.443 9.187H8.5255V17.7425H0.68V8.477C0.68 5.68433 1.34267 3.578 2.668 2.158C4.017 0.714332 5.9695 0.229165 8.5255 0.702498Z" fill="#333333"/>
</svg>
